<?xml version="1.0" standalone="no"?>
<!DOCTYPE svg PUBLIC "-//W3C//DTD SVG 20010904//EN"
 "http://www.w3.org/TR/2001/REC-SVG-20010904/DTD/svg10.dtd">
<svg version="1.0" xmlns="http://www.w3.org/2000/svg"
 width="227.000000pt" height="227.000000pt" viewBox="0 0 227.000000 227.000000"
 preserveAspectRatio="xMidYMid meet">
<metadata>
Created by potrace 1.11, written by Peter Selinger 2001-2013
</metadata>
<g transform="translate(0.000000,227.000000) scale(0.100000,-0.100000)"
fill="#000000" stroke="none">
<path d="M480 1859 c-73 -30 -93 -76 -96 -224 -2 -66 -3 -127 -3 -135 -1 -12
-20 -15 -101 -16 -111 -2 -130 -9 -176 -70 l-28 -36 -1 -257 c0 -141 3 -272 8
-292 10 -43 48 -86 91 -104 17 -7 69 -13 115 -14 47 -1 87 -3 89 -6 2 -2 5
-61 6 -132 3 -156 18 -193 95 -233 20 -10 481 -16 897 -11 70 1 116 25 147 79
18 31 19 61 19 686 0 725 2 700 -66 749 -31 22 -32 22 -501 24 -296 1 -479 -2
-495 -8z m906 -761 l2 -616 -424 0 -424 0 0 617 0 616 422 0 423 -1 1 -616z
m-1005 215 c1 -23 1 -390 0 -420 -1 -22 -5 -23 -76 -23 l-75 0 0 230 0 230 75
0 c64 0 75 -2 76 -17z"/>
<path d="M1679 1698 c-1 -2 -2 -35 -3 -74 l-2 -72 275 -1 276 0 0 74 1 75
-273 0 c-150 0 -274 -1 -274 -2z"/>
<path d="M1676 1171 c-1 -3 -2 -37 -2 -76 l1 -70 222 0 c141 0 224 3 226 10 3
9 2 120 -2 136 -1 7 -441 7 -445 0z"/>
<path d="M1674 575 l-1 -75 174 0 c131 0 173 3 174 13 1 6 2 40 3 75 l2 62
-176 0 -176 0 0 -75z"/>
</g>
</svg>
